<svg xmlns="http://www.w3.org/2000/svg" viewBox="0 0 800 800" width="100%" height="100%">
    <rect width="800" height="800" fill="#29B4FF"/>
    <g stroke="#ffffff" stroke-linecap="round" stroke-linejoin="round" fill="none">
        <path d="M 230 380 L 400 210 L 570 380" stroke-width="36"/>
        <path d="M 290 315 L 290 510" stroke-width="36"/>
        <path d="M 510 315 L 510 510" stroke-width="36"/>
        <path d="M 260 510 L 540 510" stroke-width="36"/>
    </g>
    <g transform="translate(325, 310) scale(0.28)" fill="#ffffff">
        <path d="M313.4 32.9c26 5.2 42.9 30.5 37.7 56.5l-2.3 11.4c-5.3 26.7-15.1 52.1-28.6 75.2H464c26.5 0 48 21.5 48 48c0 18.5-10.5 34.6-25.9 42.6C497 275.4 504 288.9 504 304c0 23.4-16.8 42.9-38.9 47.1c4.4 7.3 6.9 15.8 6.9 24.9c0 21.3-13.9 39.4-33.1 45.6c.7 3.3 1.1 6.8 1.1 10.4c0 26.5-21.5 48-48 48H294.5c-19 0-37.5-5.6-53.3-16.1l-38.5-25.7C176 420.4 160 390.4 160 358.3V320 272 247.1c0-29.2 13.3-56.7 36-75l7.4-5.9c26.5-21.2 44.6-51 51.2-84.2l2.3-11.4c5.2-26 30.5-42.9 56.5-37.7zM32 192H96c17.7 0 32 14.3 32 32V448c0 17.7-14.3 32-32 32H32c-17.7 0-32-14.3-32-32V224c0-17.7 14.3-32 32-32z"/>
    </g>
    <text x="400" y="620" font-family="'Montserrat', 'Arial Black', sans-serif" font-weight="900" font-size="52" fill="#ffffff" text-anchor="middle" letter-spacing="1">САНТЕХНИК</text>
    <text x="400" y="690" font-family="'Montserrat', 'Arial Black', sans-serif" font-weight="900" font-size="64" fill="#ffffff" text-anchor="middle" letter-spacing="1">МАНАС МАСТЕР</text>
</svg>
